<svg width="90" height="64" viewBox="0 0 90 64" fill="none" xmlns="http://www.w3.org/2000/svg">
    <path d="M88.331 24.2019C88.0828 23.995 85.8488 22.2989 81.0499 22.2989C79.8087 22.2989 78.5263 22.423 77.2851 22.6298C76.375 16.3002 71.121 13.2388 70.9141 13.0733L69.6316 12.3286L68.8042 13.5283C67.77 15.1418 66.9839 16.9621 66.5289 18.8237C65.6601 22.423 66.1979 25.8153 68.0182 28.7112C65.8256 29.9524 62.2677 30.242 61.5231 30.2833H2.77721C1.24651 30.2833 0.00539953 31.5244 0.00539953 33.0551C-0.0773411 38.1851 0.791436 43.315 2.57036 48.1553C4.59751 53.4507 7.61754 57.3809 11.5063 59.7804C15.8916 62.4694 23.0487 64.0001 31.1159 64.0001C34.7565 64.0001 38.3971 63.6692 41.9963 63.0073C47.0021 62.0971 51.801 60.3596 56.2277 57.836C59.8683 55.7261 63.1365 53.037 65.9083 49.8929C70.5832 44.6388 73.355 38.7642 75.3821 33.5516C75.6717 33.5516 75.9199 33.5516 76.2095 33.5516C81.2981 33.5516 84.4422 31.5244 86.1798 29.7869C87.3381 28.7113 88.2069 27.3874 88.8275 25.8981L89.1998 24.8224L88.331 24.2019Z" fill="white" />
    <path d="M8.23809 28.587H16.0984C16.4708 28.587 16.8017 28.2974 16.8017 27.8837V20.8507C16.8017 20.4784 16.5121 20.1475 16.0984 20.1475H8.23809C7.86575 20.1475 7.53479 20.437 7.53479 20.8507V27.8837C7.57616 28.2974 7.86575 28.587 8.23809 28.587Z" fill="white" />
    <path d="M19.0771 28.587H26.9375C27.3098 28.587 27.6408 28.2974 27.6408 27.8837V20.8507C27.6408 20.4784 27.3512 20.1475 26.9375 20.1475H19.0771C18.7048 20.1475 18.3738 20.437 18.3738 20.8507V27.8837C18.4152 28.2974 18.7048 28.587 19.0771 28.587Z" fill="white" />
    <path d="M30.123 28.587H37.9833C38.3557 28.587 38.6866 28.2974 38.6866 27.8837V20.8507C38.6866 20.4784 38.397 20.1475 37.9833 20.1475H30.123C29.7506 20.1475 29.4197 20.437 29.4197 20.8507V27.8837C29.4197 28.2974 29.7093 28.587 30.123 28.587Z" fill="white" />
    <path d="M41.0034 28.587H48.8637C49.2361 28.587 49.567 28.2974 49.567 27.8837V20.8507C49.567 20.4784 49.2774 20.1475 48.8637 20.1475H41.0034C40.631 20.1475 40.3001 20.437 40.3001 20.8507V27.8837C40.3001 28.2974 40.631 28.587 41.0034 28.587Z" fill="white" />
    <path d="M19.0771 18.5338H26.9375C27.3098 18.5338 27.6408 18.2028 27.6408 17.8305V10.7975C27.6408 10.4252 27.3512 10.0942 26.9375 10.0942H19.0771C18.7048 10.0942 18.3738 10.3838 18.3738 10.7975V17.8305C18.4152 18.2028 18.7048 18.5338 19.0771 18.5338Z" fill="white" />
    <path d="M30.123 18.5338H37.9833C38.3557 18.5338 38.6866 18.2028 38.6866 17.8305V10.7975C38.6866 10.4252 38.397 10.0942 37.9833 10.0942H30.123C29.7506 10.0942 29.4197 10.3838 29.4197 10.7975V17.8305C29.4197 18.2028 29.7093 18.5338 30.123 18.5338Z" fill="white" />
    <path d="M41.0034 18.5338H48.8637C49.2361 18.5338 49.567 18.2028 49.567 17.8305V10.7975C49.567 10.4252 49.2361 10.0942 48.8637 10.0942H41.0034C40.631 10.0942 40.3001 10.3838 40.3001 10.7975V17.8305C40.3001 18.2028 40.631 18.5338 41.0034 18.5338Z" fill="white" />
    <path d="M41.0034 8.43954H48.8637C49.2361 8.43954 49.567 8.14996 49.567 7.73625V0.7033C49.567 0.330968 49.2361 0 48.8637 0H41.0034C40.631 0 40.3001 0.289597 40.3001 0.7033V7.73625C40.3001 8.10859 40.631 8.43954 41.0034 8.43954Z" fill="white" />
    <path d="M51.9665 28.587H59.8269C60.1992 28.587 60.5302 28.2974 60.5302 27.8837V20.8507C60.5302 20.4784 60.2406 20.1475 59.8269 20.1475H51.9665C51.5942 20.1475 51.2632 20.437 51.2632 20.8507V27.8837C51.3046 28.2974 51.5942 28.587 51.9665 28.587Z" fill="white" />
</svg>