<svg width="58" height="64" viewBox="0 0 58 64" fill="none" xmlns="http://www.w3.org/2000/svg">
    <path d="M43.8775 64C41.8977 64 39.9183 64 37.6094 64C36.619 64 36.2893 63.671 36.2893 62.6802C36.2893 61.0308 36.2893 59.3817 36.2893 57.7329C36.2893 56.7421 36.619 56.0838 37.6094 56.0838C39.9186 56.0838 42.2281 56.0838 44.5376 56.0838C45.527 56.0838 45.8567 55.7531 46.1867 54.7637C49.1556 44.8669 49.8153 34.9692 49.1556 24.7425C48.8259 19.4638 47.8355 14.5157 46.5157 9.56703C46.1867 8.57729 45.8567 7.91758 44.5376 7.91758C42.2281 7.91758 40.2483 7.58755 37.9394 7.58755C36.9494 7.58755 36.2896 7.25753 36.6193 5.9381C36.6193 4.28865 36.6193 2.63919 36.6193 1.31943C36.6193 0.329691 36.9494 0 37.9394 0C42.2281 0.329358 46.5157 0.329358 50.475 0.659382C51.4651 0.659382 51.4651 1.31876 51.7951 1.97881C54.1039 7.91724 55.4237 13.8553 56.4131 20.1235C58.0629 33.3198 57.0728 46.5164 53.1145 59.3817C51.7951 63.671 51.7951 63.671 47.1758 63.671C46.1867 64 45.1966 64 43.8775 64Z" fill="white" />
    <path d="M0 32.6591C0.330024 22.4327 1.64912 12.2053 5.27872 2.6386C5.60841 1.31884 6.26845 0.989149 7.58788 0.989149C11.5472 0.989149 15.1758 0.659125 19.1344 0.329102C20.4541 0.329102 20.7838 0.659126 20.7838 1.97856C20.7838 3.29832 20.7838 4.94777 20.7838 6.2672C20.7838 7.58663 20.4541 7.91665 19.1344 7.91665C16.8249 7.91665 14.8464 8.24668 12.5366 8.24668C11.5468 8.24668 11.2175 8.57637 11.2175 9.23642C8.57763 18.8031 7.58789 28.3705 8.24727 37.9378C8.57763 43.5469 9.56736 48.8246 10.8868 54.1034C11.2175 55.4231 11.8769 56.0832 13.1966 56.0832C15.1758 56.0832 17.4849 56.0832 19.4647 56.0832C20.4541 56.0832 20.7838 56.4122 20.7838 57.4016C20.7838 59.0524 20.7838 60.7012 20.7838 62.3503C20.7838 63.3397 20.4541 63.6704 19.4647 63.6704C15.1758 63.6704 11.2175 63.3397 6.92818 63.3397C5.93844 63.3397 5.60841 62.68 5.27872 62.0196C2.63986 55.7525 1.32009 49.154 0.660046 42.5562C0.330355 39.587 0.330357 35.958 0 32.6591Z" fill="white" />
    <path d="M28.7021 28.7011C29.6915 26.0619 30.6812 23.4223 31.6709 21.1132C32.0003 20.1234 32.6604 19.7937 33.6504 19.7937C35.6292 20.1238 37.9391 20.1238 40.2482 20.1238C38.2684 26.0622 36.2893 31.6703 33.6504 36.9483C32.9904 38.2684 32.9904 38.9275 33.6504 40.2472C34.9692 42.5567 36.2893 45.1963 37.6094 47.8361C34.6402 47.8361 32.3307 47.8361 29.6915 47.8361C29.0318 47.8361 28.7021 47.5058 28.372 46.8454C23.753 38.5978 20.1248 30.0208 17.4849 21.1128C17.1559 20.1231 17.4849 19.7934 18.4753 19.7934C20.1251 19.7934 22.1039 19.7934 23.7534 19.4634C24.7435 19.4634 25.0735 19.7934 25.4032 20.7828C26.3936 23.422 27.3826 26.0615 28.0427 28.7007C28.372 28.7011 28.372 28.7011 28.7021 28.7011Z" fill="white" />
</svg>