<svg width="65" height="64" viewBox="0 0 65 64" fill="none" xmlns="http://www.w3.org/2000/svg">
    <path d="M32.0041 17.4326C29.1195 17.4326 26.2996 18.288 23.9011 19.8906C21.5026 21.4933 19.6332 23.7711 18.5293 26.4362C17.4254 29.1013 17.1366 32.0338 17.6993 34.863C18.2621 37.6923 19.6512 40.2911 21.6909 42.3308C23.7307 44.3706 26.3295 45.7597 29.1587 46.3224C31.9879 46.8852 34.9205 46.5964 37.5856 45.4925C40.2506 44.3886 42.5285 42.5192 44.1311 40.1207C45.7337 37.7222 46.5891 34.9023 46.5891 32.0177C46.5845 28.1509 45.0464 24.4438 42.3122 21.7096C39.578 18.9753 35.8709 17.4372 32.0041 17.4326Z" fill="#fff" />
    <path d="M52.9457 18.7256C56.615 18.7256 59.5895 15.7511 59.5895 12.0818C59.5895 8.41252 56.615 5.43799 52.9457 5.43799C49.2764 5.43799 46.3019 8.41252 46.3019 12.0818C46.3019 15.7511 49.2764 18.7256 52.9457 18.7256Z" fill="#fff" />
    <path d="M61.1263 18.7604L60.8476 18.1508L60.4123 18.6559C59.3231 19.8918 57.9458 20.8399 56.4025 21.4161L55.9671 21.5729L56.1413 22.0083C58.4876 27.6509 58.7846 33.9369 56.9807 39.7756C55.1768 45.6143 51.3859 50.6373 46.2656 53.9731C41.1454 57.3089 35.0189 58.747 28.9492 58.038C22.8795 57.3289 17.2495 54.5173 13.036 50.0911C8.82254 45.6649 6.29149 39.9034 5.88199 33.8061C5.47249 27.7088 7.21039 21.6606 10.7942 16.7107C14.3779 11.7609 19.5814 8.22174 25.5018 6.7074C31.4222 5.19305 37.686 5.79905 43.2063 8.42023L43.6155 8.61615L43.794 8.18078C44.4447 6.66747 45.4586 5.33803 46.7459 4.3103L47.2683 3.87493L46.6719 3.56581C42.1406 1.2107 37.1065 -0.0126936 31.9998 9.93068e-05C25.0856 0.00109216 18.3577 2.24117 12.8229 6.38508C7.28819 10.529 3.24425 16.3539 1.29635 22.988C-0.651552 29.6221 -0.398657 36.7086 2.01719 43.187C4.43303 49.6653 8.8819 55.1871 14.698 58.926C20.514 62.6648 27.3845 64.4196 34.2811 63.9277C41.1778 63.4358 47.7297 60.7238 52.9562 56.1974C58.1828 51.671 61.803 45.5737 63.275 38.818C64.747 32.0624 63.9916 25.0117 61.1219 18.7212L61.1263 18.7604Z" fill="#fff" />
</svg>