<svg width="72" height="64" viewBox="0 0 72 64" fill="none" xmlns="http://www.w3.org/2000/svg">
    <path d="M35.8179 1.00548C35.2515 1.03402 34.6964 1.17447 34.1854 1.41861L11.908 12.063C11.3314 12.3384 10.8248 12.739 10.4257 13.2352C10.0267 13.7314 9.74548 14.3104 9.60302 14.9292L4.10703 38.8392C3.98012 39.3901 3.96591 39.9606 4.06526 40.5171C4.1646 41.0735 4.37548 41.6045 4.6854 42.0787C4.76055 42.1946 4.84137 42.3068 4.92758 42.4149L20.3471 61.5867C20.7462 62.0828 21.2529 62.4833 21.8295 62.7586C22.4061 63.0338 23.0379 63.1767 23.6778 63.1765L48.4054 63.1709C49.0451 63.1713 49.6767 63.0289 50.2533 62.7542C50.8299 62.4794 51.3367 62.0794 51.7361 61.5839L67.1499 42.4092C67.5493 41.9128 67.8307 41.3336 67.9732 40.7146C68.1158 40.0955 68.1158 39.4526 67.9733 38.8335L62.4688 14.9235C62.3263 14.3047 62.0451 13.7257 61.6461 13.2295C61.2471 12.7333 60.7404 12.3327 60.1638 12.0573L37.8836 1.41861C37.2408 1.11151 36.5305 0.969451 35.8179 1.00548Z" fill="white" />
    <path d="M36.0387 9.14258C35.3023 9.14265 34.7052 9.80594 34.7053 10.6241C34.7053 10.6367 34.7078 10.6487 34.7081 10.6612C34.707 10.7723 34.7017 10.9063 34.7053 11.0031C34.7228 11.475 34.8257 11.8362 34.8876 12.2709C34.9998 13.2015 35.0938 13.9729 35.0358 14.6899C34.9794 14.9602 34.7802 15.2075 34.6027 15.3793L34.5714 15.9435C33.7712 16.0098 32.9656 16.1312 32.161 16.3139C28.6987 17.1 25.7178 18.8834 23.4483 21.2913C23.3011 21.1908 23.0434 21.006 22.9668 20.9494C22.7287 20.9816 22.4881 21.055 22.1747 20.8725C21.578 20.4708 21.0346 19.9164 20.3769 19.2485C20.0756 18.929 19.8574 18.6248 19.4994 18.3168C19.4181 18.2469 19.294 18.1523 19.2031 18.0803C18.9232 17.8572 18.5931 17.7408 18.2743 17.7299C17.8644 17.7158 17.4698 17.8761 17.2115 18.2C16.7525 18.7758 16.8995 19.6558 17.5392 20.1659C17.5457 20.1711 17.5526 20.1751 17.5591 20.1801C17.6471 20.2514 17.7547 20.3427 17.8355 20.4024C18.2154 20.6829 18.5624 20.8265 18.941 21.0491C19.7385 21.5416 20.3996 21.95 20.924 22.4424C21.1287 22.6606 21.1645 23.0453 21.1918 23.2116L21.6192 23.5934C19.3313 27.0364 18.2725 31.2892 18.8982 35.6225L18.3398 35.7849C18.1926 35.9749 17.9847 36.274 17.7671 36.3633C17.081 36.5794 16.3089 36.6587 15.3767 36.7564C14.939 36.7928 14.5614 36.7711 14.0974 36.859C13.9953 36.8783 13.853 36.9154 13.7413 36.9416C13.7374 36.9425 13.7338 36.9436 13.7299 36.9445C13.7238 36.9459 13.7158 36.9488 13.71 36.9502C12.924 37.1401 12.4192 37.8624 12.5817 38.5742C12.7443 39.2861 13.5119 39.719 14.3026 39.5486C14.3083 39.5473 14.3166 39.5471 14.3225 39.5457C14.3314 39.5437 14.3393 39.5394 14.3482 39.5372C14.4584 39.513 14.5965 39.4861 14.6929 39.4603C15.1491 39.3381 15.4794 39.1587 15.8895 39.0016C16.7718 38.6851 17.5025 38.4208 18.2144 38.3178C18.5118 38.2945 18.825 38.5012 18.9809 38.5884L19.5621 38.4887C20.8996 42.6355 23.7026 45.9872 27.2519 48.0903L27.0097 48.6715C27.097 48.8972 27.1933 49.2026 27.1283 49.4255C26.8695 50.0966 26.4262 50.805 25.9214 51.5948C25.6769 51.9596 25.4268 52.2428 25.2062 52.6603C25.1535 52.7603 25.0862 52.9137 25.0353 53.0193C24.6926 53.7526 24.944 54.5971 25.6023 54.914C26.2647 55.2329 27.087 54.8966 27.4428 54.1618C27.4434 54.1608 27.4451 54.16 27.4456 54.159C27.446 54.1582 27.4453 54.1569 27.4456 54.1561C27.4963 54.052 27.5681 53.915 27.6109 53.8171C27.7998 53.3843 27.8627 53.0134 27.9955 52.5948C28.3483 51.7086 28.5422 50.7787 29.0278 50.1993C29.1608 50.0407 29.3777 49.9797 29.6024 49.9195L29.9045 49.3724C32.9987 50.5601 36.4622 50.8788 39.922 50.0933C40.7113 49.9141 41.4733 49.6821 42.2099 49.4038C42.2948 49.5543 42.4525 49.8437 42.4948 49.9166C42.7232 49.9909 42.9726 50.0293 43.1757 50.3297C43.5391 50.9505 43.7876 51.6849 44.0903 52.572C44.2232 52.9906 44.2889 53.3615 44.4778 53.7943C44.5209 53.8929 44.5923 54.0318 44.6431 54.1362C44.9982 54.8733 45.823 55.2108 46.4864 54.8912C47.1447 54.5741 47.3963 53.7297 47.0534 52.9965C47.0025 52.8909 46.9324 52.7375 46.8796 52.6376C46.659 52.22 46.4089 51.9397 46.1645 51.5748C45.6597 50.7851 45.2409 50.129 44.9821 49.4579C44.8739 49.1118 45.0004 48.8965 45.0847 48.6715C45.0342 48.6137 44.9261 48.2868 44.8624 48.1331C48.551 45.9551 51.2717 42.4784 52.5494 38.4631C52.722 38.4902 53.0218 38.5433 53.1192 38.5628C53.3198 38.4305 53.5042 38.258 53.8657 38.2864C54.5776 38.3894 55.3083 38.6538 56.1906 38.9702C56.6007 39.1273 56.9311 39.3097 57.3873 39.4318C57.4837 39.4576 57.6218 39.4817 57.732 39.5059C57.7409 39.508 57.7487 39.5124 57.7576 39.5144C57.7636 39.5157 57.7719 39.516 57.7776 39.5173C58.5683 39.6875 59.3361 39.2548 59.4985 38.5429C59.6608 37.8311 59.1562 37.1085 58.3702 36.9188C58.2559 36.8928 58.0938 36.8487 57.9827 36.8277C57.5187 36.7398 57.1411 36.7615 56.7035 36.7251C55.7713 36.6274 54.9991 36.548 54.313 36.3319C54.0333 36.2234 53.8343 35.8905 53.7375 35.7535L53.199 35.5968C53.4782 33.577 53.4029 31.4748 52.9198 29.3715C52.4322 27.2485 51.5704 25.3069 50.4211 23.5963C50.5592 23.4707 50.8201 23.2397 50.8941 23.1717C50.9157 22.9325 50.8971 22.6816 51.1448 22.4167C51.6692 21.9243 52.3303 21.516 53.1278 21.0235C53.5063 20.8008 53.8562 20.6573 54.2361 20.3767C54.322 20.3133 54.4393 20.2128 54.5296 20.1403C55.1692 19.63 55.3164 18.75 54.8572 18.1744C54.398 17.5987 53.5081 17.5445 52.8685 18.0547C52.7775 18.1268 52.6539 18.2209 52.5722 18.2912C52.2142 18.5991 51.9931 18.9033 51.6918 19.2228C51.0342 19.8908 50.4907 20.448 49.894 20.8497C49.6354 21.0002 49.2567 20.9481 49.0849 20.938L48.5777 21.2999C45.6858 18.2674 41.7485 16.3286 37.5088 15.952C37.497 15.7744 37.4814 15.4532 37.4775 15.3566C37.3039 15.1905 37.0942 15.0487 37.0416 14.6899C36.9836 13.9729 37.0804 13.2015 37.1926 12.2709C37.2545 11.8362 37.3573 11.475 37.3749 11.0031C37.3789 10.8958 37.3725 10.7401 37.3721 10.6241C37.372 9.80594 36.7751 9.1425 36.0387 9.14258H36.0387ZM34.3691 19.485L33.973 26.4796L33.9445 26.4938C33.918 27.1196 33.403 27.6192 32.7707 27.6192C32.5117 27.6192 32.2726 27.5361 32.0784 27.3942L32.067 27.3999L26.3316 23.3341C28.0943 21.6008 30.349 20.3199 32.9473 19.73C33.422 19.6222 33.8964 19.5422 34.3691 19.485ZM37.7111 19.485C40.7447 19.8581 43.5502 21.2317 45.7001 23.337L40.0018 27.3771L39.9819 27.3685C39.4761 27.7379 38.7635 27.6463 38.3693 27.152C38.2078 26.9495 38.123 26.7114 38.1128 26.471L38.1071 26.4682L37.7111 19.485ZM24.2518 25.9468L29.4885 30.6308L29.4828 30.6593C29.9555 31.0702 30.0252 31.7832 29.6309 32.2776C29.4695 32.4801 29.2533 32.6159 29.0212 32.6793L29.0155 32.7021L22.303 34.6395C21.9613 31.5155 22.6976 28.4787 24.2518 25.9468ZM47.7885 25.9496C48.5666 27.2108 49.1558 28.6194 49.5065 30.1464C49.8531 31.6552 49.9401 33.1612 49.7972 34.6167L43.0504 32.6736L43.0447 32.6451C42.4405 32.48 42.0693 31.8654 42.2099 31.249C42.2675 30.9965 42.4016 30.7829 42.5831 30.6251L42.5803 30.6108L47.7885 25.9496H47.7885ZM34.9645 30.9926H37.1099L38.4433 32.6594L37.9647 34.7392L36.0387 35.6652L34.1069 34.7364L33.6283 32.6565L34.9645 30.9926ZM41.8424 36.6966C41.9335 36.692 42.0243 36.7002 42.113 36.7165L42.1244 36.7023L49.0678 37.8761C48.0516 40.731 46.1072 43.2043 43.5091 44.8594L40.8138 38.3491L40.8224 38.3377C40.5748 37.7624 40.8225 37.0878 41.3922 36.8134C41.538 36.7432 41.6904 36.7043 41.8424 36.6966H41.8424ZM30.1808 36.7251C30.7107 36.7325 31.186 37.1003 31.3091 37.6397C31.3667 37.8922 31.3387 38.1424 31.2436 38.3633L31.2635 38.389L28.5967 44.8337C26.1034 43.2338 24.1175 40.8382 23.0551 37.8989L29.9387 36.7308L29.9501 36.745C30.0271 36.7309 30.1051 36.724 30.1808 36.7251V36.7251ZM35.9959 39.5486C36.1805 39.5418 36.3678 39.5797 36.5458 39.6654C36.7792 39.7778 36.9594 39.9547 37.0729 40.1669H37.0985L40.4919 46.2982C40.0515 46.4458 39.5987 46.572 39.1357 46.6771C36.5405 47.2664 33.9536 47.0878 31.6111 46.2897L34.9959 40.1697H35.0016C35.2047 39.79 35.5899 39.5635 35.9959 39.5486Z" fill="#232323" />
</svg>