<svg width="72" height="64" viewBox="0 0 72 64" fill="none" xmlns="http://www.w3.org/2000/svg">
    <path d="M36.346 63.8813C35.4657 63.8813 34.6441 63.6465 33.8811 63.2357L26.0757 58.5994C24.902 57.9538 25.4888 57.7191 25.841 57.6017C27.4255 57.0735 27.719 56.9561 29.3622 56.0171C29.5383 55.8998 29.773 55.9585 29.9491 56.0758L35.9352 59.6558C36.17 59.7731 36.4634 59.7731 36.6395 59.6558L60.0557 46.099C60.2905 45.9816 60.4079 45.7468 60.4079 45.4534V18.3985C60.4079 18.1051 60.2905 17.8703 60.0557 17.7529L36.6395 4.25484C36.4047 4.13746 36.1113 4.13746 35.9352 4.25484L12.5189 17.7529C12.2842 17.8703 12.1668 18.1638 12.1668 18.3985V45.4534C12.1668 45.6882 12.2842 45.9816 12.5189 46.099L18.9159 49.7963C22.3784 51.5569 24.5499 49.5028 24.5499 47.4488V20.746C24.5499 20.3939 24.8433 20.0418 25.2541 20.0418H28.2472C28.5993 20.0418 28.9514 20.3352 28.9514 20.746V47.4488C28.9514 52.0851 26.4278 54.7847 22.0263 54.7847C20.6765 54.7847 19.6201 54.7847 16.627 53.3175L10.4649 49.7963C8.939 48.916 8 47.2727 8 45.5121V18.4572C8 16.6966 8.939 15.0533 10.4649 14.173L33.8811 0.616218C35.3483 -0.205406 37.3437 -0.205406 38.8109 0.616218L62.2272 14.173C63.753 15.0533 64.692 16.6966 64.692 18.4572V45.5121C64.692 47.2727 63.753 48.916 62.2272 49.7963L38.8109 63.3531C38.048 63.7052 37.1676 63.8813 36.346 63.8813ZM43.5646 45.2773C33.2943 45.2773 31.1815 40.5823 31.1815 36.5916C31.1815 36.2395 31.475 35.8874 31.8858 35.8874H34.9375C35.2896 35.8874 35.5831 36.1221 35.5831 36.4742C36.0526 39.5847 37.4024 41.1105 43.6233 41.1105C48.553 41.1105 50.6657 39.9955 50.6657 37.3545C50.6657 35.8287 50.0789 34.7136 42.3908 33.9507C35.9939 33.3051 32.0032 31.8966 32.0032 26.7908C32.0032 22.0371 35.9939 19.2201 42.6843 19.2201C50.1963 19.2201 53.8936 21.8024 54.3631 27.4364C54.3631 27.6124 54.3044 27.7885 54.187 27.9646C54.0696 28.0819 53.8936 28.1993 53.7175 28.1993H50.6657C50.3723 28.1993 50.0789 27.9646 50.0202 27.6711C49.3159 24.4433 47.4966 23.3869 42.6843 23.3869C37.285 23.3869 36.6395 25.2649 36.6395 26.6734C36.6395 28.3754 37.4024 28.9036 44.6796 29.8426C51.8982 30.7815 55.3021 32.1314 55.3021 37.1785C55.2434 42.343 51.0179 45.2773 43.5646 45.2773Z" fill="white" />
</svg>