<svg width="72" height="64" viewBox="0 0 72 64" fill="none" xmlns="http://www.w3.org/2000/svg">
    <path d="M35.275 0.00278719C32.6645 0.0149173 30.1718 0.237531 27.9798 0.625809C21.5161 1.76764 20.343 4.15664 20.343 8.56449V14.3847H35.611V16.3244H20.343H14.6139C10.1765 16.3244 6.28798 18.9918 5.07497 24.0637C3.67288 29.8782 3.61081 33.5116 5.07497 39.5823C6.16041 44.1029 8.75273 47.3217 13.1902 47.3217H18.4403V40.3454C18.4403 35.3054 22.8009 30.8577 27.9793 30.8577H43.2302C47.4757 30.8577 50.867 27.3622 50.867 23.1013V8.56221C50.867 4.4243 47.3761 1.31831 43.2302 0.623531C40.6071 0.186903 37.8855 -0.0114499 35.2744 0.000509402L35.275 0.00278719ZM27.0174 4.68342C28.5949 4.68342 29.8825 5.99268 29.8825 7.60206C29.8825 9.20574 28.5943 10.503 27.0174 10.503C25.4348 10.503 24.1523 9.20631 24.1523 7.60206C24.1523 5.99268 25.4348 4.68342 27.0174 4.68342Z" fill="white" />
    <path d="M52.7697 16.3198V23.1024C52.7697 28.3594 48.3129 32.7838 43.2308 32.7838H27.9799C23.8021 32.7838 20.343 36.359 20.343 40.5402V55.0793C20.343 59.2172 23.9416 61.6512 27.9799 62.8357C32.8131 64.2572 37.4505 64.514 43.2308 62.8357C47.0749 61.7229 50.8677 59.4826 50.8677 55.0793V49.2591H35.6167V47.3194H50.8677H58.5045C62.942 47.3194 64.598 44.2242 66.1414 39.5801C67.7354 34.7969 67.6676 30.1949 66.1414 24.0615C65.0445 19.6439 62.9499 16.3221 58.5045 16.3221H52.7754L52.7697 16.3198ZM44.1932 53.143C45.7758 53.143 47.0583 54.4397 47.0583 56.044C47.0583 57.6534 45.7758 58.9626 44.1932 58.9626C42.6157 58.9626 41.3281 57.6534 41.3281 56.044C41.3281 54.4403 42.6163 53.143 44.1932 53.143Z" fill="white" />
</svg>