<svg width="72" height="64" viewBox="0 0 72 64" fill="none" xmlns="http://www.w3.org/2000/svg">
    <path fill-rule="evenodd" clip-rule="evenodd" d="M45.0552 7.8411C42.5947 3.9631 39.5728 1.33122 36.1454 1.64566C32.6261 1.96853 29.7139 4.8343 27.47 8.58756C25.2486 12.3034 23.8177 16.6701 23.1865 19.5472C23.0907 19.984 22.6589 20.2604 22.2221 20.1646C21.7853 20.0687 21.5088 19.6369 21.6047 19.2001C22.2631 16.199 23.7473 11.6584 26.08 7.75654C28.3903 3.89213 31.6711 0.429834 35.9974 0.0329241C40.4157 -0.372418 43.9168 3.02386 46.4227 6.97346C48.966 10.9819 50.6989 15.8829 51.5225 19.1772C51.631 19.6111 51.3672 20.0507 50.9333 20.1592C50.4995 20.2677 50.0598 20.0039 49.9514 19.57C49.1555 16.3863 47.4785 11.6603 45.0552 7.8411Z" fill="white" />
    <path d="M14.7479 18L8 63.706H27.2541L35.4416 43.5522H25.2747L37.6909 18H14.7479Z" fill="white" />
    <path d="M48.2335 18H57.5007L64.2486 63.6161H27L47.0639 38.1538H36.5371L48.2335 18Z" fill="white" />
</svg>