<svg width="72" height="64" viewBox="0 0 72 64" fill="none" xmlns="http://www.w3.org/2000/svg">
    <path d="M67.9947 17.7259C67.9922 17.0823 67.9827 16.4387 67.9662 15.7953C67.9274 14.3936 67.846 12.9789 67.5964 11.5927C67.3585 10.2022 66.9144 8.85507 66.2787 7.59572C64.9911 5.06562 62.935 3.00855 60.4054 1.71984C59.1464 1.08488 57.7996 0.641207 56.4097 0.40345C55.0209 0.15388 53.6063 0.071121 52.2045 0.0336208C51.5593 0.0155173 50.9166 0.00775866 50.2726 0.00387933C49.5084 0 48.7442 0 47.9786 0H24.0199C23.2544 0 22.4915 0 21.7272 0.00387933C21.0833 0.00905177 20.4393 0.0168104 19.7953 0.0336208C19.4449 0.0426726 19.0932 0.0556037 18.7414 0.0724141C17.6876 0.122845 16.6311 0.215949 15.5901 0.40345C14.5522 0.584042 13.5368 0.876257 12.5617 1.27501C10.9279 1.9513 9.44321 2.94256 8.19226 4.19226C7.19452 5.1894 6.36014 6.33754 5.71984 7.59443C5.06811 8.87461 4.65561 10.1832 4.40345 11.5914C4.15388 12.9789 4.07112 14.3936 4.03362 15.794C4.01552 16.4406 4.00776 17.0833 4.00388 17.7259C4 18.4915 4 19.2557 4 20.0199V43.9786C4 44.7442 4 45.5084 4.00388 46.2726C4.00905 46.9166 4.01681 47.5606 4.03362 48.2032C4.07241 49.6063 4.15388 51.0209 4.40345 52.4058C4.64083 53.7971 5.08452 55.1451 5.71984 56.4054C7.00768 58.9362 9.06491 60.9935 11.5957 62.2813C12.8746 62.9318 14.1832 63.3442 15.5914 63.5977C16.9776 63.8473 18.3936 63.93 19.7953 63.9675C20.4393 63.9843 21.0833 63.9921 21.7272 63.996C22.4902 64.0012 23.2544 63.9999 24.0199 63.9999H47.9786C48.7416 63.9999 49.5071 64.0012 50.2713 63.996C50.9153 63.9921 51.558 63.9843 52.2019 63.9675C53.605 63.9287 55.0209 63.8473 56.4071 63.5977C57.7971 63.3599 59.1438 62.9163 60.4028 62.2813C62.933 60.993 64.9897 58.9359 66.2774 56.4054C66.9292 55.1252 67.3417 53.8153 67.5951 52.4084C67.8447 51.0222 67.9274 49.6076 67.9649 48.2045C67.9818 47.5619 67.9895 46.9179 67.9934 46.2739C67.9986 45.5097 67.9973 44.7455 67.9973 43.9799V20.0199C67.9973 19.2557 67.9973 18.4915 67.9934 17.7259H67.9947Z" fill="white" />
    <path d="M54.7118 39.5043L54.7079 39.5004C54.7777 39.2586 54.8501 39.0193 54.9135 38.7724C57.5695 28.1896 51.0859 15.6774 40.1164 9.09033C44.9242 15.6076 47.0488 23.5007 45.1596 30.4034C44.9915 31.0202 44.7897 31.6111 44.566 32.1853C44.2535 31.984 43.9334 31.7946 43.6065 31.6176C43.6065 31.6176 32.6927 24.8805 20.8659 12.9619C20.5556 12.649 27.1724 22.4197 34.6828 30.3542C31.1449 28.3693 21.2836 21.1938 15.0418 15.4809C15.8086 16.7611 16.7215 17.9921 17.7237 19.1779C22.9362 25.7883 29.7354 33.9452 37.8794 40.209C32.1574 43.7107 24.0715 43.9823 16.0206 40.2129C14.0496 39.2872 12.175 38.1688 10.4241 36.8741C14.024 42.5917 19.268 47.0878 25.4681 49.7728C33.0871 53.047 40.6621 52.8246 46.304 49.8272L46.3001 49.8336C46.326 49.8168 46.3583 49.8 46.3854 49.7819C46.6169 49.659 46.8471 49.531 47.0708 49.3978C49.7824 47.9909 55.1372 46.5633 58.0105 52.1548C58.7152 53.5242 60.2114 46.2711 54.7131 39.5056L54.7118 39.5043Z" fill="#232323" />
</svg>