<?xml version="1.0" encoding="utf-8"?>
<!-- Generator: Adobe Illustrator 23.0.5, SVG Export Plug-In . SVG Version: 6.00 Build 0)  -->
<svg version="1.1" id="Слой_1" xmlns="http://www.w3.org/2000/svg" xmlns:xlink="http://www.w3.org/1999/xlink" x="0px" y="0px"
	 viewBox="0 0 624 141" style="enable-background:new 0 0 624 141;" xml:space="preserve">
<style type="text/css">
	.st0{fill:url(#SVGID_1_);}
	.st1{fill:#FFFFFF;}
</style>
<g>
	<linearGradient id="SVGID_1_" gradientUnits="userSpaceOnUse" x1="55.2917" y1="48.7508" x2="80.7355" y2="122.9649">
		<stop  offset="0" style="stop-color:#FF6E8E"/>
		<stop  offset="0.3333" style="stop-color:#6EFAFB"/>
		<stop  offset="0.6092" style="stop-color:#B0FF92"/>
		<stop  offset="0.6114" style="stop-color:#B1FF91"/>
		<stop  offset="0.7525" style="stop-color:#D4ED5B"/>
		<stop  offset="0.858" style="stop-color:#EBE239"/>
		<stop  offset="0.9152" style="stop-color:#F3DE2C"/>
	</linearGradient>
	<path class="st0" d="M83,32.8l40.6,76.5h-18.3L93.5,87.4h-35l-11.6,21.9H28.5l40.6-76.5H83z M67.2,71h17.8L76,54.3L67.2,71z"/>
	<path class="st1" d="M238.3,71c0,2.7-0.3,5.5-0.8,8.2c-1.5,6.6-4.5,12.5-9,17.5c-1.9,2.2-4.1,4.1-6.4,5.7c-6.6,4.6-13.9,6.8-22,6.8
		h-18.3c-6.4,0-12.3-1.5-17.8-4.4c-5.5-2.9-10-6.9-13.5-11.9c-4.6-6.6-7-13.9-7-22c0-10.6,3.7-19.6,11.2-27
		c7.5-7.5,16.5-11.2,27-11.2h18.3c8.1,0,15.4,2.3,22,7c5.6,3.9,9.8,8.9,12.7,15h-19.9c-4.2-3.8-9.1-5.7-14.8-5.7v0.1h-18.3V49
		c-3.6,0-6.9,0.8-9.9,2.4c-3.1,1.6-5.6,3.8-7.7,6.5c-2.9,3.9-4.4,8.3-4.4,13.2c0,4.9,1.5,9.3,4.4,13.2c2.1,2.7,4.7,4.9,7.7,6.4
		c3,1.5,6.4,2.3,9.9,2.3h18.3c3.6,0,6.9-0.8,9.9-2.3c3-1.5,5.6-3.7,7.7-6.4c1.2-1.5,2.1-3.2,2.9-5.1h-39.9V63h56.8
		C238,65.6,238.3,68.3,238.3,71z"/>
	<path class="st1" d="M275.9,49V63h78.8v16.3h-78.8V93h78.8v16.4h-95.1V32.8h95.1V49H275.9z"/>
	<path class="st1" d="M472.2,32.8v76.6h-23.4l-55.5-54v54h-16.3V32.8h16.3v0.1l62.6,60.7V32.8H472.2z"/>
	<path class="st1" d="M553.5,32.8c9.8,0,18.2,3.7,25.2,11.2c7,7.5,10.5,16.5,10.5,27c0,10.6-3.5,19.6-10.5,27.1
		s-15.4,11.3-25.2,11.3H494V32.8H553.5z M553.5,93c5.4,0,9.9-2.1,13.7-6.4c3.8-4.3,5.7-9.4,5.7-15.5c0-6.1-1.9-11.2-5.7-15.6
		c-3.8-4.3-8.4-6.5-13.7-6.5h-43.2v44H553.5z"/>
</g>
</svg>
